<svg width="136" height="123" viewBox="0 0 136 123" fill="none" xmlns="http://www.w3.org/2000/svg">
<path d="M37.2004 123H8.85603C7.30888 122.998 5.78915 122.591 4.44783 121.82C3.10651 121.049 1.99028 119.941 1.21005 118.605C0.429827 117.269 0.0127596 115.752 0.000288153 114.205C-0.0121833 112.658 0.380376 111.134 1.13896 109.786L60.2371 4.52193C60.6358 3.7981 61.1323 3.13261 61.7126 2.54422C62.2694 1.98997 62.8992 1.51428 63.5846 1.1303C64.9185 0.389016 66.4193 0 67.9453 0C69.4713 0 70.9721 0.389016 72.306 1.1303C72.99 1.51439 73.6183 1.99009 74.1736 2.54422C74.775 3.12808 75.291 3.79388 75.7064 4.52193L134.813 109.773C135.572 111.122 135.965 112.647 135.952 114.195C135.939 115.743 135.521 117.261 134.739 118.597C133.957 119.934 132.839 121.042 131.496 121.812C130.153 122.582 128.631 122.987 127.083 122.987H98.7607C95.8162 117.397 91.3822 112.731 85.9496 109.506C80.5171 106.28 74.2979 104.621 67.9806 104.712C61.6643 104.62 55.4459 106.279 50.0135 109.502C44.5811 112.726 40.1465 117.39 37.2004 122.978V123Z" fill="#172B4D"/>
<path opacity="0.27" d="M60.498 81.1135L68.4794 71.0664H72.6243L65.2552 81.1092L60.498 81.1135Z" fill="#172B4D"/>
<path opacity="0.22" d="M66.8165 56.1484H79.2862L75.7625 60.5532L63.623 60.2537L66.8165 56.1484Z" fill="#172B4D"/>
<path d="M66.8445 56.1777L53.0577 73.66C52.3884 74.3703 52.0156 75.3093 52.0156 76.2852C52.0156 77.2611 52.3884 78.2002 53.0577 78.9105C53.8498 79.7992 54.8467 80.4815 55.9618 80.8982C57.077 81.315 58.277 81.4536 59.4578 81.3022L69.4301 69.0042L79.3319 56.1777H66.8445Z" fill="white"/>
<path d="M68.4949 71.1328H79.8415C79.8415 71.1328 83.167 71.9433 84.0303 73.9387C84.5263 75.2682 84.5263 76.7319 84.0303 78.0614C84.0303 78.0614 82.8983 81.1183 80.2423 81.1183H60.5664L68.4949 71.1328Z" fill="white"/>
<path d="M57.5501 46.1152H77.226C78.4374 46.1152 79.5992 46.5965 80.4559 47.4531C81.3125 48.3097 81.7937 49.4715 81.7937 50.6829C81.7937 51.2828 81.6756 51.8767 81.446 52.4309C81.2165 52.9851 80.88 53.4886 80.4559 53.9128C80.0317 54.3369 79.5282 54.6734 78.974 54.9029C78.4198 55.1325 77.8258 55.2506 77.226 55.2506H57.5501C56.9503 55.2506 56.3563 55.1325 55.8021 54.9029C55.2479 54.6734 54.7444 54.3369 54.3203 53.9128C53.8961 53.4886 53.5597 52.9851 53.3301 52.4309C53.1006 51.8767 52.9824 51.2828 52.9824 50.6829C52.9824 49.4715 53.4636 48.3097 54.3203 47.4531C55.1769 46.5965 56.3387 46.1152 57.5501 46.1152Z" fill="white"/>
</svg>
